<mxfile host="Electron" modified="2023-05-27T17:45:02.882Z" agent="Mozilla/5.0 (Windows NT 10.0; Win64; x64) AppleWebKit/537.36 (KHTML, like Gecko) draw.io/21.2.8 Chrome/112.0.5615.165 Electron/24.2.0 Safari/537.36" etag="MbDSZASboCY7nySXW3xT" version="21.2.8" type="device">
  <diagram name="Page-1" id="ulki-N4J8WldrZATpQrh">
    <mxGraphModel dx="1050" dy="621" grid="1" gridSize="10" guides="1" tooltips="1" connect="1" arrows="1" fold="1" page="1" pageScale="1" pageWidth="850" pageHeight="1100" math="0" shadow="0">
      <root>
        <mxCell id="0" />
        <mxCell id="1" parent="0" />
        <mxCell id="xNq4Y7TESOwuwN4H6xTc-1" value="" style="shape=umlLifeline;perimeter=lifelinePerimeter;whiteSpace=wrap;html=1;container=1;dropTarget=0;collapsible=0;recursiveResize=0;outlineConnect=0;portConstraint=eastwest;newEdgeStyle={&quot;edgeStyle&quot;:&quot;elbowEdgeStyle&quot;,&quot;elbow&quot;:&quot;vertical&quot;,&quot;curved&quot;:0,&quot;rounded&quot;:0};participant=umlActor;" parent="1" vertex="1">
          <mxGeometry x="80" y="110" width="20" height="1050" as="geometry" />
        </mxCell>
        <mxCell id="xNq4Y7TESOwuwN4H6xTc-2" value="Πελάτης" style="text;html=1;align=center;verticalAlign=middle;resizable=0;points=[];autosize=1;strokeColor=none;fillColor=none;" parent="1" vertex="1">
          <mxGeometry x="55" y="70" width="70" height="30" as="geometry" />
        </mxCell>
        <mxCell id="xNq4Y7TESOwuwN4H6xTc-3" value="" style="shape=umlLifeline;perimeter=lifelinePerimeter;whiteSpace=wrap;html=1;container=1;dropTarget=0;collapsible=0;recursiveResize=0;outlineConnect=0;portConstraint=eastwest;newEdgeStyle={&quot;edgeStyle&quot;:&quot;elbowEdgeStyle&quot;,&quot;elbow&quot;:&quot;vertical&quot;,&quot;curved&quot;:0,&quot;rounded&quot;:0};participant=umlBoundary;" parent="1" vertex="1">
          <mxGeometry x="220" y="110" width="50" height="1050" as="geometry" />
        </mxCell>
        <mxCell id="xNq4Y7TESOwuwN4H6xTc-7" value="" style="html=1;points=[];perimeter=orthogonalPerimeter;outlineConnect=0;targetShapes=umlLifeline;portConstraint=eastwest;newEdgeStyle={&quot;edgeStyle&quot;:&quot;elbowEdgeStyle&quot;,&quot;elbow&quot;:&quot;vertical&quot;,&quot;curved&quot;:0,&quot;rounded&quot;:0};" parent="xNq4Y7TESOwuwN4H6xTc-3" vertex="1">
          <mxGeometry x="20" y="70" width="10" height="350" as="geometry" />
        </mxCell>
        <mxCell id="xNq4Y7TESOwuwN4H6xTc-4" value="κύρια οθόνη" style="text;html=1;align=center;verticalAlign=middle;resizable=0;points=[];autosize=1;strokeColor=none;fillColor=none;" parent="1" vertex="1">
          <mxGeometry x="200" y="70" width="90" height="30" as="geometry" />
        </mxCell>
        <mxCell id="xNq4Y7TESOwuwN4H6xTc-5" value="" style="shape=umlLifeline;perimeter=lifelinePerimeter;whiteSpace=wrap;html=1;container=1;dropTarget=0;collapsible=0;recursiveResize=0;outlineConnect=0;portConstraint=eastwest;newEdgeStyle={&quot;edgeStyle&quot;:&quot;elbowEdgeStyle&quot;,&quot;elbow&quot;:&quot;vertical&quot;,&quot;curved&quot;:0,&quot;rounded&quot;:0};participant=umlEntity;" parent="1" vertex="1">
          <mxGeometry x="370" y="110" width="40" height="1050" as="geometry" />
        </mxCell>
        <mxCell id="xNq4Y7TESOwuwN4H6xTc-9" value="" style="html=1;points=[];perimeter=orthogonalPerimeter;outlineConnect=0;targetShapes=umlLifeline;portConstraint=eastwest;newEdgeStyle={&quot;edgeStyle&quot;:&quot;elbowEdgeStyle&quot;,&quot;elbow&quot;:&quot;vertical&quot;,&quot;curved&quot;:0,&quot;rounded&quot;:0};" parent="xNq4Y7TESOwuwN4H6xTc-5" vertex="1">
          <mxGeometry x="15" y="120" width="10" height="300" as="geometry" />
        </mxCell>
        <mxCell id="xNq4Y7TESOwuwN4H6xTc-6" value="αγαπημένα" style="text;html=1;align=center;verticalAlign=middle;resizable=0;points=[];autosize=1;strokeColor=none;fillColor=none;" parent="1" vertex="1">
          <mxGeometry x="350" y="70" width="80" height="30" as="geometry" />
        </mxCell>
        <mxCell id="xNq4Y7TESOwuwN4H6xTc-11" value="" style="shape=umlLifeline;perimeter=lifelinePerimeter;whiteSpace=wrap;html=1;container=1;dropTarget=0;collapsible=0;recursiveResize=0;outlineConnect=0;portConstraint=eastwest;newEdgeStyle={&quot;edgeStyle&quot;:&quot;elbowEdgeStyle&quot;,&quot;elbow&quot;:&quot;vertical&quot;,&quot;curved&quot;:0,&quot;rounded&quot;:0};participant=umlBoundary;" parent="1" vertex="1">
          <mxGeometry x="540" y="110" width="50" height="1050" as="geometry" />
        </mxCell>
        <mxCell id="xNq4Y7TESOwuwN4H6xTc-13" value="" style="html=1;points=[];perimeter=orthogonalPerimeter;outlineConnect=0;targetShapes=umlLifeline;portConstraint=eastwest;newEdgeStyle={&quot;edgeStyle&quot;:&quot;elbowEdgeStyle&quot;,&quot;elbow&quot;:&quot;vertical&quot;,&quot;curved&quot;:0,&quot;rounded&quot;:0};" parent="xNq4Y7TESOwuwN4H6xTc-11" vertex="1">
          <mxGeometry x="20" y="180" width="10" height="80" as="geometry" />
        </mxCell>
        <mxCell id="xNq4Y7TESOwuwN4H6xTc-12" value="λίστα με αγαπημένα&lt;br style=&quot;border-color: var(--border-color);&quot;&gt;&lt;span style=&quot;border-color: var(--border-color);&quot;&gt;προϊόντα&amp;nbsp;&lt;/span&gt;" style="text;html=1;align=center;verticalAlign=middle;resizable=0;points=[];autosize=1;strokeColor=none;fillColor=none;" parent="1" vertex="1">
          <mxGeometry x="500" y="55" width="130" height="40" as="geometry" />
        </mxCell>
        <mxCell id="xNq4Y7TESOwuwN4H6xTc-17" value="" style="shape=umlLifeline;perimeter=lifelinePerimeter;whiteSpace=wrap;html=1;container=1;dropTarget=0;collapsible=0;recursiveResize=0;outlineConnect=0;portConstraint=eastwest;newEdgeStyle={&quot;edgeStyle&quot;:&quot;elbowEdgeStyle&quot;,&quot;elbow&quot;:&quot;vertical&quot;,&quot;curved&quot;:0,&quot;rounded&quot;:0};participant=umlBoundary;" parent="1" vertex="1">
          <mxGeometry x="690" y="110" width="50" height="1050" as="geometry" />
        </mxCell>
        <mxCell id="xNq4Y7TESOwuwN4H6xTc-19" value="" style="html=1;points=[];perimeter=orthogonalPerimeter;outlineConnect=0;targetShapes=umlLifeline;portConstraint=eastwest;newEdgeStyle={&quot;edgeStyle&quot;:&quot;elbowEdgeStyle&quot;,&quot;elbow&quot;:&quot;vertical&quot;,&quot;curved&quot;:0,&quot;rounded&quot;:0};" parent="xNq4Y7TESOwuwN4H6xTc-17" vertex="1">
          <mxGeometry x="20" y="260" width="10" height="210" as="geometry" />
        </mxCell>
        <mxCell id="xNq4Y7TESOwuwN4H6xTc-18" value="Αγορά ή&amp;nbsp; Αφαίρεση&lt;br style=&quot;border-color: var(--border-color);&quot;&gt;&lt;span style=&quot;border-color: var(--border-color);&quot;&gt;απο την λίστα&lt;/span&gt;" style="text;html=1;align=center;verticalAlign=middle;resizable=0;points=[];autosize=1;strokeColor=none;fillColor=none;" parent="1" vertex="1">
          <mxGeometry x="650" y="50" width="130" height="40" as="geometry" />
        </mxCell>
        <mxCell id="xNq4Y7TESOwuwN4H6xTc-22" value="alternative" style="shape=umlFrame;whiteSpace=wrap;html=1;pointerEvents=0;fillColor=#f8cecc;strokeColor=#b85450;" parent="1" vertex="1">
          <mxGeometry y="450" width="920" height="150" as="geometry" />
        </mxCell>
        <mxCell id="xNq4Y7TESOwuwN4H6xTc-23" value="delete&lt;br&gt;product" style="text;html=1;align=center;verticalAlign=middle;resizable=0;points=[];autosize=1;strokeColor=none;fillColor=none;" parent="1" vertex="1">
          <mxGeometry y="475" width="60" height="40" as="geometry" />
        </mxCell>
        <mxCell id="xNq4Y7TESOwuwN4H6xTc-24" value="delete_product_favorite()" style="html=1;verticalAlign=bottom;endArrow=open;dashed=1;endSize=8;edgeStyle=elbowEdgeStyle;elbow=vertical;curved=0;rounded=0;" parent="1" source="xNq4Y7TESOwuwN4H6xTc-17" target="xNq4Y7TESOwuwN4H6xTc-5" edge="1">
          <mxGeometry relative="1" as="geometry">
            <mxPoint x="530" y="494.5" as="sourcePoint" />
            <mxPoint x="450" y="494.5" as="targetPoint" />
            <Array as="points">
              <mxPoint x="480" y="490" />
            </Array>
          </mxGeometry>
        </mxCell>
        <mxCell id="xNq4Y7TESOwuwN4H6xTc-30" value="" style="shape=umlLifeline;perimeter=lifelinePerimeter;whiteSpace=wrap;html=1;container=1;dropTarget=0;collapsible=0;recursiveResize=0;outlineConnect=0;portConstraint=eastwest;newEdgeStyle={&quot;edgeStyle&quot;:&quot;elbowEdgeStyle&quot;,&quot;elbow&quot;:&quot;vertical&quot;,&quot;curved&quot;:0,&quot;rounded&quot;:0};participant=umlEntity;" parent="1" vertex="1">
          <mxGeometry x="850" y="110" width="40" height="1050" as="geometry" />
        </mxCell>
        <mxCell id="xNq4Y7TESOwuwN4H6xTc-31" value="" style="html=1;points=[];perimeter=orthogonalPerimeter;outlineConnect=0;targetShapes=umlLifeline;portConstraint=eastwest;newEdgeStyle={&quot;edgeStyle&quot;:&quot;elbowEdgeStyle&quot;,&quot;elbow&quot;:&quot;vertical&quot;,&quot;curved&quot;:0,&quot;rounded&quot;:0};" parent="xNq4Y7TESOwuwN4H6xTc-30" vertex="1">
          <mxGeometry x="15" y="470" width="10" height="100" as="geometry" />
        </mxCell>
        <mxCell id="xNq4Y7TESOwuwN4H6xTc-33" value="προϊόντα" style="text;html=1;align=center;verticalAlign=middle;resizable=0;points=[];autosize=1;strokeColor=none;fillColor=none;" parent="1" vertex="1">
          <mxGeometry x="835" y="50" width="70" height="30" as="geometry" />
        </mxCell>
        <mxCell id="xNq4Y7TESOwuwN4H6xTc-34" value="" style="shape=umlLifeline;perimeter=lifelinePerimeter;whiteSpace=wrap;html=1;container=1;dropTarget=0;collapsible=0;recursiveResize=0;outlineConnect=0;portConstraint=eastwest;newEdgeStyle={&quot;edgeStyle&quot;:&quot;elbowEdgeStyle&quot;,&quot;elbow&quot;:&quot;vertical&quot;,&quot;curved&quot;:0,&quot;rounded&quot;:0};participant=umlEntity;" parent="1" vertex="1">
          <mxGeometry x="990" y="108" width="40" height="1052" as="geometry" />
        </mxCell>
        <mxCell id="xNq4Y7TESOwuwN4H6xTc-36" value="" style="html=1;points=[];perimeter=orthogonalPerimeter;outlineConnect=0;targetShapes=umlLifeline;portConstraint=eastwest;newEdgeStyle={&quot;edgeStyle&quot;:&quot;elbowEdgeStyle&quot;,&quot;elbow&quot;:&quot;vertical&quot;,&quot;curved&quot;:0,&quot;rounded&quot;:0};" parent="xNq4Y7TESOwuwN4H6xTc-34" vertex="1">
          <mxGeometry x="15" y="570" width="10" height="80" as="geometry" />
        </mxCell>
        <mxCell id="xNq4Y7TESOwuwN4H6xTc-35" value="φαρμακεία" style="text;html=1;align=center;verticalAlign=middle;resizable=0;points=[];autosize=1;strokeColor=none;fillColor=none;" parent="1" vertex="1">
          <mxGeometry x="990" y="50" width="80" height="30" as="geometry" />
        </mxCell>
        <mxCell id="xNq4Y7TESOwuwN4H6xTc-40" value="" style="shape=umlLifeline;perimeter=lifelinePerimeter;whiteSpace=wrap;html=1;container=1;dropTarget=0;collapsible=0;recursiveResize=0;outlineConnect=0;portConstraint=eastwest;newEdgeStyle={&quot;edgeStyle&quot;:&quot;elbowEdgeStyle&quot;,&quot;elbow&quot;:&quot;vertical&quot;,&quot;curved&quot;:0,&quot;rounded&quot;:0};participant=umlBoundary;" parent="1" vertex="1">
          <mxGeometry x="1250" y="110" width="50" height="1050" as="geometry" />
        </mxCell>
        <mxCell id="xNq4Y7TESOwuwN4H6xTc-43" value="" style="html=1;points=[];perimeter=orthogonalPerimeter;outlineConnect=0;targetShapes=umlLifeline;portConstraint=eastwest;newEdgeStyle={&quot;edgeStyle&quot;:&quot;elbowEdgeStyle&quot;,&quot;elbow&quot;:&quot;vertical&quot;,&quot;curved&quot;:0,&quot;rounded&quot;:0};" parent="xNq4Y7TESOwuwN4H6xTc-40" vertex="1">
          <mxGeometry x="20" y="650" width="10" height="100" as="geometry" />
        </mxCell>
        <mxCell id="xNq4Y7TESOwuwN4H6xTc-41" value="οθόνη με τα φαρμακεία&lt;br style=&quot;border-color: var(--border-color);&quot;&gt;&lt;span style=&quot;border-color: var(--border-color);&quot;&gt;που ειναι διαθέσιμο&lt;/span&gt;&lt;br style=&quot;border-color: var(--border-color);&quot;&gt;&lt;span style=&quot;border-color: var(--border-color);&quot;&gt;το προϊόν&lt;/span&gt;" style="text;html=1;align=center;verticalAlign=middle;resizable=0;points=[];autosize=1;strokeColor=none;fillColor=none;" parent="1" vertex="1">
          <mxGeometry x="1200" y="35" width="150" height="60" as="geometry" />
        </mxCell>
        <mxCell id="xNq4Y7TESOwuwN4H6xTc-45" value="" style="shape=umlLifeline;perimeter=lifelinePerimeter;whiteSpace=wrap;html=1;container=1;dropTarget=0;collapsible=0;recursiveResize=0;outlineConnect=0;portConstraint=eastwest;newEdgeStyle={&quot;edgeStyle&quot;:&quot;elbowEdgeStyle&quot;,&quot;elbow&quot;:&quot;vertical&quot;,&quot;curved&quot;:0,&quot;rounded&quot;:0};participant=umlEntity;" parent="1" vertex="1">
          <mxGeometry x="1400" y="110" width="40" height="1050" as="geometry" />
        </mxCell>
        <mxCell id="xNq4Y7TESOwuwN4H6xTc-49" value="" style="html=1;points=[];perimeter=orthogonalPerimeter;outlineConnect=0;targetShapes=umlLifeline;portConstraint=eastwest;newEdgeStyle={&quot;edgeStyle&quot;:&quot;elbowEdgeStyle&quot;,&quot;elbow&quot;:&quot;vertical&quot;,&quot;curved&quot;:0,&quot;rounded&quot;:0};" parent="xNq4Y7TESOwuwN4H6xTc-45" vertex="1">
          <mxGeometry x="15" y="750" width="10" height="190" as="geometry" />
        </mxCell>
        <mxCell id="xNq4Y7TESOwuwN4H6xTc-47" value="&amp;nbsp;καλάθι" style="text;html=1;align=center;verticalAlign=middle;resizable=0;points=[];autosize=1;strokeColor=none;fillColor=none;" parent="1" vertex="1">
          <mxGeometry x="1380" y="40" width="60" height="30" as="geometry" />
        </mxCell>
        <mxCell id="xNq4Y7TESOwuwN4H6xTc-51" value="alternative" style="shape=umlFrame;whiteSpace=wrap;html=1;pointerEvents=0;fillColor=#f8cecc;strokeColor=#b85450;" parent="1" vertex="1">
          <mxGeometry x="1300" y="930" width="300" height="100" as="geometry" />
        </mxCell>
        <mxCell id="xNq4Y7TESOwuwN4H6xTc-53" value="" style="shape=umlLifeline;perimeter=lifelinePerimeter;whiteSpace=wrap;html=1;container=1;dropTarget=0;collapsible=0;recursiveResize=0;outlineConnect=0;portConstraint=eastwest;newEdgeStyle={&quot;edgeStyle&quot;:&quot;elbowEdgeStyle&quot;,&quot;elbow&quot;:&quot;vertical&quot;,&quot;curved&quot;:0,&quot;rounded&quot;:0};participant=umlEntity;" parent="1" vertex="1">
          <mxGeometry x="1550" y="108" width="40" height="1052" as="geometry" />
        </mxCell>
        <mxCell id="xNq4Y7TESOwuwN4H6xTc-56" value="" style="html=1;points=[];perimeter=orthogonalPerimeter;outlineConnect=0;targetShapes=umlLifeline;portConstraint=eastwest;newEdgeStyle={&quot;edgeStyle&quot;:&quot;elbowEdgeStyle&quot;,&quot;elbow&quot;:&quot;vertical&quot;,&quot;curved&quot;:0,&quot;rounded&quot;:0};" parent="xNq4Y7TESOwuwN4H6xTc-53" vertex="1">
          <mxGeometry x="15" y="940" width="10" height="90" as="geometry" />
        </mxCell>
        <mxCell id="xNq4Y7TESOwuwN4H6xTc-54" value="παραγγελίες" style="text;html=1;align=center;verticalAlign=middle;resizable=0;points=[];autosize=1;strokeColor=none;fillColor=none;" parent="1" vertex="1">
          <mxGeometry x="1525" y="50" width="90" height="30" as="geometry" />
        </mxCell>
        <mxCell id="xNq4Y7TESOwuwN4H6xTc-57" value="buy product" style="text;html=1;align=center;verticalAlign=middle;resizable=0;points=[];autosize=1;strokeColor=none;fillColor=none;" parent="1" vertex="1">
          <mxGeometry y="550" width="90" height="30" as="geometry" />
        </mxCell>
        <mxCell id="xNq4Y7TESOwuwN4H6xTc-58" value="buy more" style="text;html=1;align=center;verticalAlign=middle;resizable=0;points=[];autosize=1;strokeColor=none;fillColor=none;" parent="1" vertex="1">
          <mxGeometry x="1310" y="965" width="70" height="30" as="geometry" />
        </mxCell>
        <mxCell id="VHi2MsQaX3Q0ZuuQZwCq-1" value="" style="shape=umlLifeline;perimeter=lifelinePerimeter;whiteSpace=wrap;html=1;container=1;dropTarget=0;collapsible=0;recursiveResize=0;outlineConnect=0;portConstraint=eastwest;newEdgeStyle={&quot;edgeStyle&quot;:&quot;elbowEdgeStyle&quot;,&quot;elbow&quot;:&quot;vertical&quot;,&quot;curved&quot;:0,&quot;rounded&quot;:0};participant=umlEntity;" parent="1" vertex="1">
          <mxGeometry x="1130" y="110" width="40" height="1050" as="geometry" />
        </mxCell>
        <mxCell id="VHi2MsQaX3Q0ZuuQZwCq-5" value="" style="html=1;points=[];perimeter=orthogonalPerimeter;outlineConnect=0;targetShapes=umlLifeline;portConstraint=eastwest;newEdgeStyle={&quot;edgeStyle&quot;:&quot;elbowEdgeStyle&quot;,&quot;elbow&quot;:&quot;vertical&quot;,&quot;curved&quot;:0,&quot;rounded&quot;:0};" parent="VHi2MsQaX3Q0ZuuQZwCq-1" vertex="1">
          <mxGeometry x="15" y="600" width="10" height="30" as="geometry" />
        </mxCell>
        <mxCell id="VHi2MsQaX3Q0ZuuQZwCq-2" value="προϊόντα&amp;nbsp;&lt;br&gt;φαρμακείου" style="text;html=1;align=center;verticalAlign=middle;resizable=0;points=[];autosize=1;strokeColor=none;fillColor=none;" parent="1" vertex="1">
          <mxGeometry x="1105" y="40" width="90" height="40" as="geometry" />
        </mxCell>
        <mxCell id="VHi2MsQaX3Q0ZuuQZwCq-4" value="return_price()" style="html=1;verticalAlign=bottom;endArrow=open;dashed=1;endSize=8;edgeStyle=elbowEdgeStyle;elbow=vertical;curved=0;rounded=0;" parent="1" source="VHi2MsQaX3Q0ZuuQZwCq-1" target="xNq4Y7TESOwuwN4H6xTc-36" edge="1">
          <mxGeometry relative="1" as="geometry">
            <mxPoint x="1020" y="730" as="sourcePoint" />
            <mxPoint x="950" y="730" as="targetPoint" />
            <Array as="points">
              <mxPoint x="1120" y="740" />
              <mxPoint x="1000" y="740" />
              <mxPoint x="1010" y="750" />
              <mxPoint x="970" y="730" />
            </Array>
          </mxGeometry>
        </mxCell>
        <mxCell id="VHi2MsQaX3Q0ZuuQZwCq-6" value="alternative" style="shape=umlFrame;whiteSpace=wrap;html=1;pointerEvents=0;fillColor=#f8cecc;strokeColor=#b85450;" parent="1" vertex="1">
          <mxGeometry x="620" y="610" width="840" height="80" as="geometry" />
        </mxCell>
        <mxCell id="VHi2MsQaX3Q0ZuuQZwCq-7" value="out of stock" style="text;html=1;align=center;verticalAlign=middle;resizable=0;points=[];autosize=1;strokeColor=none;fillColor=none;" parent="1" vertex="1">
          <mxGeometry x="625" y="637" width="80" height="30" as="geometry" />
        </mxCell>
        <mxCell id="VHi2MsQaX3Q0ZuuQZwCq-8" value="Προβολή εναλλακτικών προϊόντων για προϊόντα που είναι out of stock" style="ellipse;whiteSpace=wrap;html=1;fillColor=#d5e8d4;strokeColor=#82b366;" parent="1" vertex="1">
          <mxGeometry x="1615" y="588" width="120" height="80" as="geometry" />
        </mxCell>
        <mxCell id="VHi2MsQaX3Q0ZuuQZwCq-11" value="" style="endArrow=classic;html=1;rounded=0;entryX=0;entryY=0.5;entryDx=0;entryDy=0;exitX=1.5;exitY=0.5;exitDx=0;exitDy=0;exitPerimeter=0;fillColor=#d5e8d4;strokeColor=#1C000E;" parent="1" source="xNq4Y7TESOwuwN4H6xTc-31" target="VHi2MsQaX3Q0ZuuQZwCq-8" edge="1">
          <mxGeometry width="50" height="50" relative="1" as="geometry">
            <mxPoint x="790" y="730" as="sourcePoint" />
            <mxPoint x="840" y="680" as="targetPoint" />
          </mxGeometry>
        </mxCell>
        <mxCell id="VHi2MsQaX3Q0ZuuQZwCq-13" value="in stock" style="text;html=1;align=center;verticalAlign=middle;resizable=0;points=[];autosize=1;strokeColor=none;fillColor=none;" parent="1" vertex="1">
          <mxGeometry x="625" y="667" width="60" height="30" as="geometry" />
        </mxCell>
        <mxCell id="VHi2MsQaX3Q0ZuuQZwCq-14" value="Δημιουργία Παραγγελίας" style="ellipse;whiteSpace=wrap;html=1;fillColor=#d5e8d4;strokeColor=#82b366;" parent="1" vertex="1">
          <mxGeometry x="1610" y="940" width="120" height="80" as="geometry" />
        </mxCell>
        <mxCell id="VHi2MsQaX3Q0ZuuQZwCq-15" value="" style="endArrow=classic;html=1;rounded=0;entryX=0;entryY=0.5;entryDx=0;entryDy=0;fillColor=#d5e8d4;strokeColor=#82b366;" parent="1" source="xNq4Y7TESOwuwN4H6xTc-49" target="VHi2MsQaX3Q0ZuuQZwCq-14" edge="1">
          <mxGeometry width="50" height="50" relative="1" as="geometry">
            <mxPoint x="1420" y="1040" as="sourcePoint" />
            <mxPoint x="1470" y="990" as="targetPoint" />
          </mxGeometry>
        </mxCell>
        <mxCell id="SBsLl5TB-p921PdwH_xf-1" value=":main_screen" style="rounded=0;whiteSpace=wrap;html=1;" parent="1" vertex="1">
          <mxGeometry x="185" y="100" width="120" height="60" as="geometry" />
        </mxCell>
        <mxCell id="SBsLl5TB-p921PdwH_xf-2" value=":favorite_screen" style="whiteSpace=wrap;html=1;" parent="1" vertex="1">
          <mxGeometry x="505" y="100" width="120" height="60" as="geometry" />
        </mxCell>
        <mxCell id="SBsLl5TB-p921PdwH_xf-3" value=":favorite" style="whiteSpace=wrap;html=1;" parent="1" vertex="1">
          <mxGeometry x="330" y="100" width="120" height="60" as="geometry" />
        </mxCell>
        <mxCell id="SBsLl5TB-p921PdwH_xf-4" value=":buy_delete_screen" style="whiteSpace=wrap;html=1;" parent="1" vertex="1">
          <mxGeometry x="655" y="100" width="120" height="60" as="geometry" />
        </mxCell>
        <mxCell id="SBsLl5TB-p921PdwH_xf-6" value=":products" style="whiteSpace=wrap;html=1;" parent="1" vertex="1">
          <mxGeometry x="810" y="100" width="120" height="60" as="geometry" />
        </mxCell>
        <mxCell id="SBsLl5TB-p921PdwH_xf-7" value=":pharmacy" style="whiteSpace=wrap;html=1;" parent="1" vertex="1">
          <mxGeometry x="950" y="95" width="120" height="60" as="geometry" />
        </mxCell>
        <mxCell id="SBsLl5TB-p921PdwH_xf-8" value=":inventory" style="whiteSpace=wrap;html=1;" parent="1" vertex="1">
          <mxGeometry x="1090" y="95" width="120" height="60" as="geometry" />
        </mxCell>
        <mxCell id="SBsLl5TB-p921PdwH_xf-9" value=":available_pharm_&lt;br&gt;screen" style="whiteSpace=wrap;html=1;" parent="1" vertex="1">
          <mxGeometry x="1215" y="95" width="120" height="60" as="geometry" />
        </mxCell>
        <mxCell id="SBsLl5TB-p921PdwH_xf-10" value=":cart" style="whiteSpace=wrap;html=1;" parent="1" vertex="1">
          <mxGeometry x="1360" y="95" width="120" height="60" as="geometry" />
        </mxCell>
        <mxCell id="SBsLl5TB-p921PdwH_xf-11" value=":orders" style="whiteSpace=wrap;html=1;" parent="1" vertex="1">
          <mxGeometry x="1510" y="90" width="120" height="60" as="geometry" />
        </mxCell>
        <mxCell id="47gLqL9XdeD8wmlWy0KD-1" value="select_favorite()" style="html=1;verticalAlign=bottom;endArrow=block;edgeStyle=elbowEdgeStyle;elbow=vertical;curved=0;rounded=0;" parent="1" source="xNq4Y7TESOwuwN4H6xTc-1" target="xNq4Y7TESOwuwN4H6xTc-7" edge="1">
          <mxGeometry width="80" relative="1" as="geometry">
            <mxPoint x="125" y="180" as="sourcePoint" />
            <mxPoint x="205" y="180" as="targetPoint" />
            <Array as="points">
              <mxPoint x="200" y="180" />
            </Array>
          </mxGeometry>
        </mxCell>
        <mxCell id="47gLqL9XdeD8wmlWy0KD-2" value="get_favorite()" style="html=1;verticalAlign=bottom;endArrow=block;edgeStyle=elbowEdgeStyle;elbow=vertical;curved=0;rounded=0;" parent="1" source="xNq4Y7TESOwuwN4H6xTc-3" target="xNq4Y7TESOwuwN4H6xTc-5" edge="1">
          <mxGeometry width="80" relative="1" as="geometry">
            <mxPoint x="270" y="250" as="sourcePoint" />
            <mxPoint x="350" y="250" as="targetPoint" />
            <Array as="points">
              <mxPoint x="330" y="230" />
            </Array>
          </mxGeometry>
        </mxCell>
        <mxCell id="47gLqL9XdeD8wmlWy0KD-3" value="display_favorite()" style="html=1;verticalAlign=bottom;endArrow=block;edgeStyle=elbowEdgeStyle;elbow=vertical;curved=0;rounded=0;" parent="1" source="xNq4Y7TESOwuwN4H6xTc-5" target="xNq4Y7TESOwuwN4H6xTc-13" edge="1">
          <mxGeometry width="80" relative="1" as="geometry">
            <mxPoint x="430" y="290" as="sourcePoint" />
            <mxPoint x="510" y="290" as="targetPoint" />
            <Array as="points">
              <mxPoint x="530" y="290" />
            </Array>
            <mxPoint as="offset" />
          </mxGeometry>
        </mxCell>
        <mxCell id="47gLqL9XdeD8wmlWy0KD-4" value="select_product()" style="html=1;verticalAlign=bottom;endArrow=block;edgeStyle=elbowEdgeStyle;elbow=vertical;curved=0;rounded=0;" parent="1" source="xNq4Y7TESOwuwN4H6xTc-1" target="xNq4Y7TESOwuwN4H6xTc-13" edge="1">
          <mxGeometry width="80" relative="1" as="geometry">
            <mxPoint x="400" y="360" as="sourcePoint" />
            <mxPoint x="480" y="360" as="targetPoint" />
          </mxGeometry>
        </mxCell>
        <mxCell id="47gLqL9XdeD8wmlWy0KD-5" value="display_options_favorite()" style="html=1;verticalAlign=bottom;endArrow=block;edgeStyle=elbowEdgeStyle;elbow=vertical;curved=0;rounded=0;" parent="1" source="xNq4Y7TESOwuwN4H6xTc-11" target="xNq4Y7TESOwuwN4H6xTc-19" edge="1">
          <mxGeometry width="80" relative="1" as="geometry">
            <mxPoint x="610" y="400" as="sourcePoint" />
            <mxPoint x="690" y="400" as="targetPoint" />
            <Array as="points">
              <mxPoint x="670" y="370" />
            </Array>
          </mxGeometry>
        </mxCell>
        <mxCell id="47gLqL9XdeD8wmlWy0KD-6" value="select_option_favorite()" style="html=1;verticalAlign=bottom;endArrow=block;edgeStyle=elbowEdgeStyle;elbow=vertical;curved=0;rounded=0;" parent="1" source="xNq4Y7TESOwuwN4H6xTc-1" target="xNq4Y7TESOwuwN4H6xTc-17" edge="1">
          <mxGeometry x="0.2176" width="80" relative="1" as="geometry">
            <mxPoint x="575" y="430" as="sourcePoint" />
            <mxPoint x="655" y="430" as="targetPoint" />
            <Array as="points">
              <mxPoint x="620" y="420" />
              <mxPoint x="660" y="430" />
            </Array>
            <mxPoint as="offset" />
          </mxGeometry>
        </mxCell>
        <mxCell id="47gLqL9XdeD8wmlWy0KD-7" value="display()" style="html=1;verticalAlign=bottom;endArrow=block;edgeStyle=elbowEdgeStyle;elbow=vertical;curved=0;rounded=0;" parent="1" source="xNq4Y7TESOwuwN4H6xTc-9" target="xNq4Y7TESOwuwN4H6xTc-3" edge="1">
          <mxGeometry width="80" relative="1" as="geometry">
            <mxPoint x="610" y="510" as="sourcePoint" />
            <mxPoint x="690" y="510" as="targetPoint" />
            <Array as="points">
              <mxPoint x="350" y="530" />
            </Array>
          </mxGeometry>
        </mxCell>
        <mxCell id="47gLqL9XdeD8wmlWy0KD-8" value="check_stock()" style="html=1;verticalAlign=bottom;endArrow=block;edgeStyle=elbowEdgeStyle;elbow=vertical;curved=0;rounded=0;" parent="1" source="xNq4Y7TESOwuwN4H6xTc-17" target="xNq4Y7TESOwuwN4H6xTc-30" edge="1">
          <mxGeometry width="80" relative="1" as="geometry">
            <mxPoint x="740" y="610" as="sourcePoint" />
            <mxPoint x="820" y="610" as="targetPoint" />
            <Array as="points">
              <mxPoint x="830" y="580" />
            </Array>
          </mxGeometry>
        </mxCell>
        <mxCell id="47gLqL9XdeD8wmlWy0KD-9" value="search_pharmacies()" style="html=1;verticalAlign=bottom;endArrow=block;edgeStyle=elbowEdgeStyle;elbow=vertical;curved=0;rounded=0;" parent="1" source="xNq4Y7TESOwuwN4H6xTc-30" target="xNq4Y7TESOwuwN4H6xTc-34" edge="1">
          <mxGeometry width="80" relative="1" as="geometry">
            <mxPoint x="890" y="710" as="sourcePoint" />
            <mxPoint x="970" y="710" as="targetPoint" />
            <Array as="points">
              <mxPoint x="980" y="680" />
            </Array>
          </mxGeometry>
        </mxCell>
        <mxCell id="47gLqL9XdeD8wmlWy0KD-10" value="search_product()" style="html=1;verticalAlign=bottom;endArrow=block;edgeStyle=elbowEdgeStyle;elbow=vertical;curved=0;rounded=0;" parent="1" source="xNq4Y7TESOwuwN4H6xTc-34" target="VHi2MsQaX3Q0ZuuQZwCq-5" edge="1">
          <mxGeometry width="80" relative="1" as="geometry">
            <mxPoint x="1050" y="700" as="sourcePoint" />
            <mxPoint x="1130" y="700" as="targetPoint" />
            <Array as="points">
              <mxPoint x="1120" y="710" />
            </Array>
            <mxPoint as="offset" />
          </mxGeometry>
        </mxCell>
        <mxCell id="47gLqL9XdeD8wmlWy0KD-11" value="display_pharmacies()" style="html=1;verticalAlign=bottom;endArrow=block;edgeStyle=elbowEdgeStyle;elbow=vertical;curved=0;rounded=0;" parent="1" source="xNq4Y7TESOwuwN4H6xTc-34" target="xNq4Y7TESOwuwN4H6xTc-43" edge="1">
          <mxGeometry width="80" relative="1" as="geometry">
            <mxPoint x="1080" y="780" as="sourcePoint" />
            <mxPoint x="1160" y="780" as="targetPoint" />
            <Array as="points">
              <mxPoint x="1080" y="760" />
            </Array>
            <mxPoint as="offset" />
          </mxGeometry>
        </mxCell>
        <mxCell id="47gLqL9XdeD8wmlWy0KD-12" value="select_pharmacy()" style="html=1;verticalAlign=bottom;endArrow=block;edgeStyle=elbowEdgeStyle;elbow=vertical;curved=0;rounded=0;" parent="1" source="xNq4Y7TESOwuwN4H6xTc-1" target="xNq4Y7TESOwuwN4H6xTc-40" edge="1">
          <mxGeometry width="80" relative="1" as="geometry">
            <mxPoint x="610" y="610" as="sourcePoint" />
            <mxPoint x="690" y="610" as="targetPoint" />
            <Array as="points">
              <mxPoint x="940" y="810" />
              <mxPoint x="1240" y="840" />
            </Array>
          </mxGeometry>
        </mxCell>
        <mxCell id="47gLqL9XdeD8wmlWy0KD-13" value="add_to_cart()" style="html=1;verticalAlign=bottom;endArrow=block;edgeStyle=elbowEdgeStyle;elbow=vertical;curved=0;rounded=0;" parent="1" source="xNq4Y7TESOwuwN4H6xTc-43" target="xNq4Y7TESOwuwN4H6xTc-49" edge="1">
          <mxGeometry width="80" relative="1" as="geometry">
            <mxPoint x="1310" y="860" as="sourcePoint" />
            <mxPoint x="1390" y="860" as="targetPoint" />
            <Array as="points">
              <mxPoint x="1390" y="860" />
            </Array>
          </mxGeometry>
        </mxCell>
        <mxCell id="47gLqL9XdeD8wmlWy0KD-14" value="place_order()" style="html=1;verticalAlign=bottom;endArrow=block;edgeStyle=elbowEdgeStyle;elbow=vertical;curved=0;rounded=0;" parent="1" source="xNq4Y7TESOwuwN4H6xTc-45" target="xNq4Y7TESOwuwN4H6xTc-56" edge="1">
          <mxGeometry width="80" relative="1" as="geometry">
            <mxPoint x="1460" y="1060" as="sourcePoint" />
            <mxPoint x="1540" y="1060" as="targetPoint" />
            <Array as="points">
              <mxPoint x="1540" y="1050" />
            </Array>
          </mxGeometry>
        </mxCell>
        <mxCell id="47gLqL9XdeD8wmlWy0KD-15" value="select_buy_more()" style="html=1;verticalAlign=bottom;endArrow=block;edgeStyle=elbowEdgeStyle;elbow=vertical;curved=0;rounded=0;" parent="1" source="xNq4Y7TESOwuwN4H6xTc-1" target="xNq4Y7TESOwuwN4H6xTc-49" edge="1">
          <mxGeometry width="80" relative="1" as="geometry">
            <mxPoint x="1020" y="1010" as="sourcePoint" />
            <mxPoint x="1100" y="1010" as="targetPoint" />
            <Array as="points">
              <mxPoint x="830" y="900" />
            </Array>
          </mxGeometry>
        </mxCell>
        <mxCell id="88peucWGKnSQI2oUE40m-1" value="" style="line;strokeWidth=1;fillColor=#f8cecc;align=left;verticalAlign=middle;spacingTop=-1;spacingLeft=3;spacingRight=3;rotatable=0;labelPosition=right;points=[];portConstraint=eastwest;strokeColor=#b85450;" vertex="1" parent="1">
          <mxGeometry y="546" width="920" height="8" as="geometry" />
        </mxCell>
        <mxCell id="88peucWGKnSQI2oUE40m-3" value="" style="line;strokeWidth=1;fillColor=#f8cecc;align=left;verticalAlign=middle;spacingTop=-1;spacingLeft=3;spacingRight=3;rotatable=0;labelPosition=right;points=[];portConstraint=eastwest;strokeColor=#b85450;" vertex="1" parent="1">
          <mxGeometry x="620" y="659" width="840" height="8" as="geometry" />
        </mxCell>
      </root>
    </mxGraphModel>
  </diagram>
</mxfile>
